<svg width="132" height="142" viewBox="0 0 132 142" fill="none" xmlns="http://www.w3.org/2000/svg">
<path d="M74.84 70.8412C60.2929 53.8988 39.2638 36.6829 45.5159 12.5676C46.1918 9.96042 51.655 -0.0378057 55.576 1.70485C64.1741 5.52625 70.1029 17.3955 70.9337 26.534C71.591 33.7645 71.309 41.3661 72.6996 48.4736C73.7458 53.8209 74.84 59.6067 74.84 65.062C74.84 68.8732 75.9812 69.2864 71.3618 65.8647C63.6637 60.1624 56.3218 53.8899 46.8537 51.1491C31.9213 46.8266 15.8039 48.6497 6.4528 61.6373C4.21488 64.7455 -0.0270529 68.4607 2.06489 72.7676C5.33437 79.4989 11.2248 81.6177 18.0112 83.3628C34.0143 87.4779 49.5543 86.1827 64.6194 80.0451C70.1494 77.7921 72.5981 77.6091 76.7664 73.1957C79.7549 70.0315 70.9806 79.7834 68.8468 83.5769C60.7824 97.9134 51.1942 114.938 59.6428 131.523C61.8473 135.85 68.9619 140.585 73.8768 140.138C83.1269 139.297 86.3984 127.06 86.3984 119.59C86.3984 111.346 84.0286 104.89 81.5824 97.0616C80.4505 93.4395 78.3903 89.3167 75.8567 86.4664C74.1602 84.5578 73.6028 85.8668 75.054 87.4296C85.7186 98.9145 104.785 130.993 124.284 114.613C130.012 109.802 125.285 97.958 122.786 92.2457C118.925 83.4213 111.12 78.0473 101.81 77.5301C96.645 77.2432 91.672 74.694 86.6124 74.694C80.8353 74.694 98.3267 74.0469 103.736 72.0184C112.309 68.8038 125.288 57.5471 128.137 48.7411C130.52 41.3764 130.304 28.5885 125.247 22.5207C122.15 18.8034 118.31 14.9027 113.422 13.7448C107.549 12.354 102.019 18.3402 97.9568 21.718C90.6738 27.7735 87.1684 35.8483 82.8667 44.0856C78.614 52.229 73.6364 60.084 70.9872 68.9148" stroke="#FF8A00" stroke-width="3" stroke-linecap="round"/>
</svg>
