<svg width="121" height="225" viewBox="0 0 121 225" fill="none" xmlns="http://www.w3.org/2000/svg">
<path d="M97.3078 5.00073C90.8971 15.2878 82.3022 25.9923 78.2454 37.583C77.2728 40.3619 76.1011 42.0849 74.5158 44.576C73.9955 45.3936 72.3105 47.7136 73.9978 47.8912C81.217 48.6511 88.5271 49.1602 95.7538 49.9632C101.141 50.5617 105.099 53.4856 110.724 53.4856C112.617 53.4856 117.543 54.1867 114.454 56.8008C102.822 66.6434 94.9969 78.9339 84.4614 89.642C78.3563 95.8473 72.8806 104.255 66.0206 109.481C63.7477 111.213 61.0008 111.713 64.1558 112.434C69.0134 113.544 74.4062 113.931 79.385 114.092C82.1056 114.179 84.1567 115.956 86.637 115.956C87.818 115.956 91.4754 116.213 89.3306 116.992C87.4896 117.662 85.753 120.052 84.4614 121.344C78.6131 127.192 73.1406 133.242 68.1962 139.888C47.8844 167.19 26.9846 193.431 5.00012 219.453" stroke="#FCFF61" stroke-width="10" stroke-linecap="round"/>
</svg>
