<svg width="99" height="164" viewBox="0 0 99 164" fill="none" xmlns="http://www.w3.org/2000/svg">
<path d="M80.8582 5.00037C73.8722 14.5334 66.385 23.8612 59.8274 33.6976C57.2719 37.5308 55.5904 41.8391 52.8344 45.5598C50.1696 49.1573 45.4579 52.7863 43.7694 57.0076C43.3354 58.0926 42.6168 58.1472 43.9766 58.1472C48.2144 58.1472 52.3922 58.1911 56.6158 58.6134C65.3034 59.4822 73.9011 59.2111 82.5158 57.94C85.7054 57.4694 90.1499 56.3398 93.3938 57.2666C94.6559 57.6272 76.5479 75.6341 75.471 76.7953C69.212 83.5442 63.8022 90.9248 57.341 97.5153C47.839 107.207 38.7223 117.119 30.6122 128.026C24.2988 136.516 18.1502 144.796 10.7727 152.423C10.4721 152.734 3.38969 158.886 5.33372 157.914" stroke="#FCFF61" stroke-width="10" stroke-linecap="round"/>
</svg>
