<svg width="73" height="80" viewBox="0 0 73 80" fill="none" xmlns="http://www.w3.org/2000/svg">
<circle cx="34.5" cy="44.7829" r="34.5" fill="#FCFF61"/>
<path d="M17.5797 37.6037C19.8446 39.5899 20.8179 40.0782 23.6835 39.919C24.9375 39.8493 26.0794 39.2418 27.2616 38.9134C27.9711 38.7163 29.4325 38.3134 29.7874 37.6037" stroke="black" stroke-width="3" stroke-linecap="round"/>
<path d="M41.7846 37.3932C43.1967 38.9788 45.6583 41.597 48.1924 40.4452C49.462 39.8681 53.1503 39.0543 53.1503 37.1828" stroke="black" stroke-width="3" stroke-linecap="round"/>
<path d="M34.2074 56.9676C32.1765 59.7206 34.6423 57.0751 33.9502 56.383C33.3251 55.7579 33.0674 57.1789 33.2018 57.5523C33.4798 58.3246 34.1573 57.3792 33.9502 56.8039C33.5449 55.6781 32.0552 57.6554 32.1143 58.3357C32.2916 60.3743 34.4273 59.009 34.8271 57.8095C35.19 56.7209 33.9758 55.8866 32.9445 55.9152C31.8342 55.9461 31.274 58.1996 32.1026 58.8151C33.2541 59.6705 35.2543 57.66 34.8154 56.4531C34.5256 55.6561 32.6546 55.2591 32.126 55.9386C31.0358 57.3403 33.1565 60.2439 34.7102 58.9204C35.9956 57.8254 36.0596 55.8736 34.4179 55.2019C32.4234 54.386 31.5618 56.8104 32.1026 58.3474C32.8991 60.6112 35.8738 58.6439 36.4291 57.2249C36.7432 56.4221 33.9813 53.8841 33.155 54.0677C31.6572 54.4006 31.4289 57.7479 32.6639 58.4293C34.1238 59.2347 38.0743 57.8228 36.8033 55.7515C36.1068 54.6165 33.7116 53.7375 32.4768 54.2314C30.7804 54.91 29.7716 57.0606 31.0502 58.6047C32.8479 60.7754 35.1808 59.7733 36.6396 57.8095C38.1191 55.8179 35.3726 54.1778 33.576 53.7286C27.5946 52.2333 32.5293 63.8603 36.1485 58.2305C38.9574 53.861 31.1954 50.6542 29.6938 55.2955C28.0866 60.2632 37.3412 61.6851 37.3412 56.1257C37.3412 51.2369 27.6534 51.9222 30.9333 57.599C32.1765 59.7507 34.5123 61.4053 36.4759 58.8151C37.855 56.9959 37.1574 53.7695 35.1545 52.5827C30.9508 50.0916 26.8007 60.8213 34.4179 58.441" stroke="black" stroke-width="3" stroke-linecap="round"/>
<path d="M41.2691 24.354C42.6877 23.4898 43.9924 22.5572 45.2936 21.5501C45.5357 21.3627 46.1235 20.9156 46.1605 21.2003C46.2737 22.0718 46.0031 23.1974 45.8922 24.0695C45.75 25.1877 45.7266 26.2111 45.8698 27.3133C45.9247 27.7354 45.8238 29.059 46.5094 28.6304C47.5215 27.9978 48.4599 27.3133 49.5181 26.7377C49.7683 26.6016 50.5538 25.7902 50.3616 26.0183" stroke="#0085FF" stroke-width="3" stroke-linecap="round"/>
<path d="M48.9574 14.9403C50.2419 14.3456 51.7003 13.2909 53.0638 12.9132C53.3635 12.8302 53.6772 12.8747 53.9518 12.7051C54.709 12.2373 54.5695 12.86 54.6568 13.5319C54.9105 15.4848 54.1652 17.5099 54.4225 19.4901C54.5201 20.2411 54.6177 20.9922 54.7153 21.7433C54.8217 22.5621 54.6211 23.3723 54.6953 24.1764C54.7055 24.2875 54.7011 24.6703 54.7841 24.573C55.4124 23.8377 56.2343 23.2314 56.9765 22.6184C57.8556 21.8923 58.756 21.1752 59.7382 20.5898C60.1253 20.359 60.585 20.2272 60.6765 19.7629" stroke="#0085FF" stroke-width="3" stroke-linecap="round"/>
<path d="M55.676 4.56056C56.1758 4.33367 61.6668 1.34687 61.7377 1.50621C62.0756 2.26562 61.8725 3.20406 61.8903 4.0969C61.9284 6.00487 62.5406 7.76004 62.7858 9.64752C63.0183 11.437 63.5153 13.2835 64.0812 14.9975C64.7008 16.874 64.5471 18.9725 65.242 20.8017C65.4115 21.2476 65.2943 21.3075 65.6919 20.9848C66.4384 20.3788 67.4742 19.9055 68.3466 19.5065C69.1612 19.1338 71.1539 18.4531 71.4823 17.5569" stroke="#0085FF" stroke-width="3" stroke-linecap="round"/>
</svg>
